<svg xmlns="http://www.w3.org/2000/svg" xmlns:xlink="http://www.w3.org/1999/xlink" viewBox="0,0,256,256" width="48px" height="48px"><g fill="#ffffff" fill-rule="nonzero" stroke="none" stroke-width="1" stroke-linecap="butt" stroke-linejoin="miter" stroke-miterlimit="10" stroke-dasharray="" stroke-dashoffset="0" font-family="none" font-weight="none" font-size="none" text-anchor="none" style="mix-blend-mode: normal"><g transform="scale(8.53333,8.53333)"><path d="M14.297,11.822c0.22,-0.32 0.46,-0.362 0.657,-0.362c0.195,0 0.52,0.042 0.74,0.362c2.865,3.903 8.808,14.199 9.357,14.76c0.814,0.83 1.931,0.313 2.579,-0.629c0.64,-0.928 0.817,-1.579 0.817,-2.273c0,-0.473 -9.254,-17.546 -10.188,-18.968c-0.896,-1.367 -1.188,-1.712 -2.721,-1.712h-1.148c-1.53,0 -1.751,0.345 -2.647,1.711c-0.935,1.424 -10.189,18.498 -10.189,18.971c0,0.696 0.177,1.345 0.817,2.273c0.648,0.942 1.765,1.461 2.579,0.629c0.549,-0.561 6.483,-10.857 9.348,-14.759z"></path></g></g></svg>